<svg xmlns="http://www.w3.org/2000/svg" viewBox="0 0 170 170">
  <g transform="translate(0, 44)" fill="#1e2021">
    <path d="M62.12,57.64l-14.69-1.64-8.94-3.29c-.93-.63-4.02-3.03-4.74-7.4-.25-1.53-.18-3.07.22-4.58.64-2.44,2.67-4.27,5.19-4.67,9.02-1.43,17.65-4.32,25.64-8.58,10.38-5.54,19.66-13.49,26.85-23,1.41-1.87,3.64-2.94,6-2.83,4.62.19,9.29.1,13.89-.28,3.33-.27,6.69-.7,10-1.27,2.91-.5,5.79,1.36,6.53,4.25l1.48,5.79c3.02,3.73,6.85,9.82,8.39,18.09,1.67,8.95-.05,16.54-1.79,21.33-.58,1.59-2.11,2.66-3.82,2.66h-12.67c-1.45,0-2.79-.71-3.59-1.92l-.7-1.06c-2.9-.26-5.82-.3-8.71-.12-6.95.43-11.93,2.02-16.74,3.55-1.24.4-2.47.79-3.72,1.16-7.48,2.21-15.55,3.5-23.97,3.82h-.11ZM48.28,53.12l13.94,1.51c8.13-.32,15.91-1.56,23.12-3.69,1.23-.36,2.44-.75,3.66-1.14,4.99-1.59,10.14-3.24,17.47-3.69,3.28-.2,6.61-.13,9.9.2l.71.07,1.49,2.25c.24.37.65.58,1.09.58h12.67c.45,0,.85-.28,1-.69,1.61-4.44,3.21-11.47,1.66-19.76-1.46-7.84-5.14-13.57-7.97-17l-.21-.26-1.65-6.43c-.35-1.38-1.72-2.28-3.11-2.04-3.39.59-6.85,1.03-10.27,1.3-4.72.39-9.52.48-14.26.29h0c-1.35-.06-2.67.56-3.49,1.64-7.45,9.86-17.07,18.1-27.83,23.84-8.29,4.42-17.23,7.42-26.58,8.9-1.34.21-2.42,1.18-2.76,2.47-.29,1.1-.34,2.23-.16,3.34.5,2.99,2.51,4.72,3.32,5.3l8.26,3Z"/>
    <path d="M7.11,81.66c-3.17,0-5.9-2.12-6.65-5.16-.35-1.42-.5-2.88-.46-4.34.06-1.96.47-3.87,1.23-5.7.77-1.85,2.59-3.06,4.64-3.06l158.21-.42h.01c2.46,0,4.56,1.77,4.99,4.22.34,1.97.47,3.97.38,5.95-.03.73-.1,1.46-.2,2.19-.44,3.35-3.35,5.89-6.77,5.9l-155.38.41h-.02ZM5.88,66.4c-.82,0-1.57.49-1.87,1.21-.62,1.49-.96,3.05-1,4.64-.04,1.19.09,2.38.37,3.53.42,1.69,1.95,2.87,3.73,2.87h0l155.38-.41c1.92,0,3.56-1.42,3.8-3.28.08-.65.14-1.3.17-1.95.08-1.76-.03-3.54-.33-5.29-.18-1.01-1.03-1.74-2.04-1.74h0l-158.21.42ZM5.88,64.9h0,0Z"/>
    <path d="M162.41,76.53h-8.62c-.55-.01-1-.46-1-1.01s.45-1,1-1h8.62c.55.01,1,.46,1,1.01s-.45,1-1,1Z"/>
    <path d="M148.23,76.51h0l-117.36-.14c-.55,0-1-.45-1-1s.45-1,1-1h0l117.36.14c.55,0,1,.45,1,1s-.45,1-1,1Z"/>
    <path d="M24.14,76.36h0l-16.83-.02c-.55,0-1-.45-1-1s.45-1,1-1h0l16.83.02c.55,0,1,.45,1,1s-.45,1-1,1Z"/>
    <path d="M57.89,63.59c-.3,0-.61-.09-.88-.28-.67-.48-.83-1.42-.34-2.09l2.51-3.49c.49-.67,1.42-.82,2.09-.34.67.48.83,1.42.34,2.09l-2.51,3.49c-.29.41-.75.62-1.22.62Z"/>
    <path d="M44.98,62.77c-.25,0-.51-.06-.74-.2-.72-.41-.97-1.33-.56-2.05l2.16-3.78c.41-.72,1.33-.97,2.05-.56.72.41.97,1.33.56,2.05l-2.16,3.78c-.28.49-.78.76-1.3.76Z"/>
    <path d="M114.14,62.89c-.26,0-.52-.07-.77-.2-.76-.42-1.02-1.38-.6-2.14l4.19-7.46c.42-.76,1.38-1.02,2.14-.6.76.42,1.02,1.38.6,2.14l-4.19,7.46c-.29.51-.82.8-1.37.8ZM138.62,62.65c-.54,0-1.06-.28-1.35-.77l-4.4-7.48c-.44-.75-.19-1.71.56-2.15.75-.44,1.71-.19,2.15.56l4.4,7.48c.44.75.19,1.71-.56,2.15-.25.15-.52.22-.79.22Z"/>
    <path d="M76.04,52.61c-.9,0-1.76-.4-2.34-1.09-.63-.75-.86-1.72-.63-2.67.28-1.15.43-2.33.44-3.51.01-1.29-.14-2.59-.45-3.85-.21-.85-.05-1.74.44-2.46.49-.71,1.25-1.19,2.11-1.31,2.44-.33,6.17-1.11,10.09-2.94.5-.23,1.1-.02,1.33.48.23.5.02,1.1-.48,1.33-4.15,1.94-8.09,2.76-10.67,3.11-.3.04-.56.2-.73.45-.17.25-.23.56-.15.85.35,1.43.52,2.89.51,4.35-.01,1.33-.18,2.67-.5,3.97-.08.32,0,.65.22.9.22.26.55.41.89.38,7.59-.56,22.13-3.24,34.22-14.97,7.92-7.68,11.82-16.39,13.7-22.35.1-.33.04-.67-.16-.95-.21-.28-.57-.43-.88-.43l-18.14.35c-.52.01-.96.4-1.03.93-.39,2.78-1.13,5.47-2.21,7.99-.22.51-.8.75-1.31.53-.51-.22-.74-.8-.53-1.31,1-2.36,1.7-4.87,2.07-7.48.21-1.51,1.46-2.62,2.97-2.65l18.14-.35c.95-.03,1.93.44,2.52,1.23.6.8.77,1.8.47,2.75-1.95,6.18-6,15.21-14.21,23.18-12.55,12.17-27.61,14.95-35.47,15.53-.07,0-.15,0-.22,0Z"/>
    <path d="M96.09,38.12c-.9,0-1.79-.25-2.56-.74-2.51-1.58-4.8-3.49-6.81-5.66-1.71-1.84-3.21-3.88-4.47-6.06-.76-1.31-.85-2.92-.25-4.32.51-1.18,1.22-2.24,2.12-3.14.53-.53,1.11-1,1.75-1.4,1.57-.99,3.59-.99,5.15,0,2.19,1.39,4.27,2.97,6.18,4.72,2.12,1.94,4.05,4.09,5.75,6.4,1.13,1.55,1.24,3.62.27,5.29-.4.68-.87,1.32-1.41,1.89-1.11,1.19-2.46,2.1-4.02,2.7-.54.21-1.12.31-1.69.31ZM88.44,19.06c-.34,0-.68.09-.97.28h0c-.44.28-.86.61-1.22.98-.63.63-1.13,1.37-1.49,2.21-.23.53-.19,1.14.09,1.63,1.15,1.99,2.53,3.85,4.08,5.53,1.83,1.98,3.92,3.72,6.21,5.16.48.3,1.06.36,1.58.17,1.13-.43,2.1-1.08,2.9-1.94.38-.41.72-.87,1.01-1.36.37-.64.33-1.42-.09-2-1.58-2.15-3.38-4.16-5.36-5.96-1.78-1.63-3.72-3.11-5.75-4.4-.29-.19-.63-.28-.97-.28ZM86.66,18.07h0,0Z"/>
  </g>
</svg>
