<?xml version="1.0" encoding="UTF-8"?><svg id="Layer_2" xmlns="http://www.w3.org/2000/svg" viewBox="0 0 47.69 64.53"><g id="Layer_3"><path d="M17.08,64.53c.02-.05.05-.1.06-.15.18-.91.32-1,1.34-.85-.41.35-.8.68-1.18,1h-.22Z" style="fill:#0a1628;"/><path d="M11.74,22.26c.09-.03.18-.09.27-.09,2.98.07,5.97.15,8.95.23.09,0,.23.03.27-.02.18-.21.32-.44.48-.66-.18-.11-.36-.3-.54-.31-1.42-.05-2.84-.07-4.26-.1-.59-.01-1.18-.01-1.77-.04-.17,0-.33-.1-.49-.15,0-.06.01-.12.02-.18.13-.02.26-.07.39-.07,2.08.03,4.17.08,6.25.11.97.02,1.94,0,2.91.02,4.6.14,9.21.29,13.81.43.57.02,1.14,0,1.71.05.65.05,1.27-.05,1.87-.31.16-.07.36-.09.54-.09,1.14.01,2.29.03,3.43.07.17,0,.33.13.49.2-.17.1-.34.3-.51.29-1.18-.02-2.36-.1-3.54-.13-.3,0-.79-.18-.81.29-.03.49.47.34.77.35.94.02,1.88-.01,2.82.01.22,0,.62.16.61.23-.03.42-.4.34-.68.33-1.42-.05-2.83-.14-4.25-.17-4.94-.11-9.88-.2-14.82-.31-.81-.02-1.62-.08-2.43-.09-.44,0-.89.06-1.33.1,0,.05,0,.1,0,.16.22.03.44.07.66.08,4.65.09,9.29.16,13.94.25,1.07.02,2.17-.08,3.2.14,1.63.35,3.26.23,4.88.31.14,0,.27.06.41.09.01.05.03.11.04.16-.17.06-.35.16-.52.16-1.36-.02-2.73-.07-4.09-.11-.23,0-.54-.1-.52.27,0,.09.31.23.48.24,1.18.05,2.36.06,3.54.1.22,0,.43.12.65.19-.01.06-.02.13-.03.19-.23.02-.45.07-.68.07-1.12-.03-2.25-.07-3.37-.1-.15,0-.32-.06-.44,0-.14.06-.24.22-.36.33.12.08.24.22.37.22,1,.03,1.99.03,2.99.05.24,0,.48-.01.72.03.11.02.21.14.31.21-.1.09-.19.21-.31.26-.09.04-.22,0-.33,0-2.69-.11-5.37-.26-8.06-.32-1.45-.04-2.92.24-4.34.06-2.89-.37-5.77-.17-8.66-.3-.33-.01-.66.01-1.01.02-.03-.14-.06-.24-.07-.35-.02-.4-.21-.56-.63-.56-1.62,0-3.24-.05-4.87-.08-.07,0-.16.02-.22,0-.13-.06-.26-.14-.38-.21.14-.08.28-.22.42-.22,1.68,0,3.36.02,5.03.04.32,0,.63.07.65-.42.01-.48-.25-.53-.63-.54-2.74-.06-5.49-.12-8.23-.19-.23,0-.47-.05-.7-.08v-.15ZM33.99,24.89c0-.49-.22-.57-.56-.59-.75-.05-1.57.19-2.16-.53-.06-.07-.24-.07-.37-.07-3-.07-6.01-.14-9.01-.2-.16,0-.32.05-.47.08.07.15.13.2.19.2,1.15.1,2.29.22,3.44.27,1.78.08,3.57.12,5.36.18.24,0,.54-.03.69.1.87.71,1.88.46,2.89.56ZM31.79,23.54s-.01.07-.02.1c.61.09,1.31.03,1.82.31.49.27.94.36,1.45.36.77.01,1.55.01,2.32.03.64.01,1.29.05,1.93.05.12,0,.24-.16.36-.24-.11-.1-.21-.22-.34-.29-.07-.04-.18,0-.27-.01-1.51-.03-3.02-.04-4.53-.1-.91-.03-1.82-.14-2.73-.21Z" style="fill:#0a1628;"/><path d="M15.29,12.29c8.88.03,17.75.89,26.58.81.08.1.11.13.12.16.08.79.08.73.88.7.97-.04,1.94.04,2.91.08.11,0,.22.13.39.24-.15.09-.21.15-.27.15-1.35-.06-2.71-.12-4.06-.19-.29-.01-.59-.03-.88-.04-2.43-.04-4.88-.26-7.3-.08-2.9.22-5.79.11-8.65-.07-2.55-.17-5.09-.23-7.64-.35-.24-.01-.48-.12-.71-.23,5.43-.17,10.84.4,16.25.35.02-.08.05-.16.07-.24-.19-.11-.38-.31-.57-.32-1.99-.04-3.98-.04-5.97-.07-.83-.01-1.72.11-2.47-.14-2.72-.89-5.5-.34-8.24-.51-.15,0-.3-.03-.45-.05,0-.07,0-.14.01-.21Z" style="fill:#0a1628;"/><path d="M14.55,29.36c2.24.05,4.48.09,6.73.14.15,0,.3.02.44,0,.29-.02.69.08.69-.4,0-.5-.33-.71-.81-.72-1.86-.01-3.72-.05-5.58-.09-.12,0-.23-.1-.34-.16.01-.04.02-.09.04-.13.24,0,.48,0,.71.01,1.47.03,2.95.09,4.42.09.89,0,1.79-.17,2.68-.14.64.02,1.28.24,1.92.37.14.03.29.06.43.07,1.4.03,2.8.04,4.2.08.49.02.98.13,1.47.19.53.06,1.05.15,1.58.16,2.93.06,5.86.11,8.79.16.09,0,.18.03.29.05-.03.45-.34.46-.66.46-2.1-.06-4.19-.14-6.29-.18-.64-.01-1.28.09-1.91.14-.37.03-.73.09-1.1.08-3.06-.02-6.12-.06-9.17-.07-2.35,0-4.71.02-7.06.03-.49,0-.98-.02-1.47-.03,0-.04,0-.09,0-.13Z" style="fill:#0a1628;"/><path d="M43.65,26.19c-.27.56-.71.44-1.09.43-1.05-.03-2.14-.28-3.14-.07-1.28.27-2.52.07-3.77.09-1.02.02-2.04-.23-3.06-.26-.82-.02-1.64.11-2.47.16-.48.03-.96.06-1.43.04-2.14-.07-4.27-.16-6.41-.25-.81-.03-.81-.04-.92-1.06.91.02,1.8.03,2.7.06,1.77.06,3.53.12,5.3.22,1.53.09,3.06.25,4.6.33.48.02.97-.17,1.46-.18.83-.02,1.66,0,2.48.04.51.03,1.01.15,1.52.21.44.05.88.08,1.32.09.85.03,1.69.04,2.54.06.1,0,.2.05.37.1Z" style="fill:#0a1628;"/><path d="M41.91,12.76c-2.39-.05-4.75-.08-7.11-.15-.75-.02-1.53.13-2.25-.28-.25-.14-.61-.08-.93-.08-1.73-.02-3.46,0-5.2-.04-.97-.02-2.03.13-2.9-.2-1.44-.54-2.9-.29-4.34-.41-1.58-.13-3.17-.08-4.75-.12-.16,0-.32-.04-.48-.06,0-.06,0-.12.01-.19.19,0,.38,0,.57.01,2.29.05,4.57.09,6.86.14,1.29.03,2.6-.1,3.85.12,2.07.37,4.15.22,6.22.38.49.04.99.13,1.41-.27.09-.09.31-.08.47-.07,2.54.05,5.09.1,7.63.16.87.02.99.17.93,1.07Z" style="fill:#0a1628;"/><path d="M12.8,26.64c.27,0,.54.01.81.02,2.1.04,4.2.11,6.3.13,1.28,0,2.56-.1,3.85-.09.41,0,.83.21,1.24.32.07.02.14.06.21.06,1.6.02,3.22.18,4.8,0,1.29-.14,2.56-.11,3.85-.11,1.6,0,3.2,0,4.79.03,1.34.02,2.68.07,4.02.12.15,0,.3.07.45.1,0,.06.01.12.02.18-.18.05-.36.14-.55.14-1.18-.01-2.36-.04-3.54-.07-2.61-.06-5.23-.13-7.84-.19-.33,0-.64,0-.83.39-.07.14-.38.23-.57.23-2.54-.08-5.08-.18-7.61-.29-.12,0-.22-.19-.34-.28-.15-.11-.31-.29-.46-.3-2.41-.05-4.82-.07-7.23-.09-.33,0-.66-.01-.99-.03-.13,0-.25-.05-.38-.08l.03-.2Z" style="fill:#0a1628;"/><path d="M13.84,19.64c.95.02,1.89.04,2.84.06,1.73.04,3.46.1,5.19.1.89,0,1.81-.28,2.67-.15,2.75.41,5.51.3,8.27.4,1.22.04,2.43.07,3.65.03.85-.03,1.49.3,2.08.94-.72-.01-1.39-.03-2.06-.04-4.18-.1-8.37-.19-12.55-.29-.31,0-.63-.06-.94-.06-.37,0-.69.02-.81-.45-.03-.11-.36-.18-.56-.19-2.52-.07-5.05-.13-7.57-.19-.07,0-.14,0-.22-.02,0-.04,0-.09-.01-.13Z" style="fill:#0a1628;"/><path d="M10.43,48.54c.04-.36.06-.58.07-.75l-5.85-.12c0-.06,0-.12,0-.17,7.27-.14,14.51.69,21.85.58-.29.67-.62.87-1.27.85-4.27-.15-8.54-.24-12.82-.35-.64-.02-1.28-.03-1.99-.04Z" style="fill:#0a1628;"/><path d="M17.64,36.43c.23-.03.41-.07.59-.07,2.05.02,4.09.06,6.14.08.59,0,1.22-.16,1.76,0,2.4.76,4.86.29,7.29.46.13,0,.26,0,.39.01.03,0,.06.03.1.05-.13.59-.59.98-1.18.97-2.05-.03-4.09-.08-6.14-.12-1.14-.02-2.27-.05-3.42-.07.14-.27.28-.52.44-.83-2.02-.1-3.93-.18-5.83-.28-.03,0-.05-.09-.12-.22Z" style="fill:#0a1628;"/><path d="M40.17,32.28c-.24.09-.49.28-.73.26-.96-.06-1.92-.19-2.89-.27-.88-.07-1.76-.15-2.64-.17-3.35-.08-6.71-.14-10.06-.19-.47,0-.78-.13-.8-.72.26,0,.49-.02.72-.02,3.5.07,7,.14,10.5.19.35,0,.7-.16,1.06-.23.28-.06.57-.15.86-.15,1.44.01,2.87.05,4.31.08.02,0,.04,0,.05,0,.16.09.31.17.47.26-.15.06-.3.18-.46.18-.83,0-1.66-.01-2.49-.03-.53-.01-1.07-.04-1.6-.05-.18,0-.36.06-.54.19,1.35.57,2.8.28,4.19.46.03.06.05.12.08.18Z" style="fill:#0a1628;"/><path d="M22.61,29.72c.95.02,1.83.02,2.7.06,1.97.08,3.93.22,5.9.26,3.33.06,6.67.06,10,.11.15,0,.3.16.45.25-.17.1-.34.29-.51.29-1.88-.01-3.75-.06-5.63-.08-.22,0-.44.13-.66.2-.17.05-.34.14-.52.14-3.7-.07-7.4-.15-11.1-.23-.58-.01-.49-.47-.64-.99Z" style="fill:#0a1628;"/><path d="M36.5,19.7c-4.15-.14-8.31-.28-12.46-.43-.32-.01-.68.12-.8-.41-.03-.12-.56-.18-.86-.18-1.73-.03-3.47-.03-5.2-.06-.6,0-1.2-.08-1.81-.23.07-.02.15-.05.22-.05,2.3.05,4.61.13,6.91.16,4.09.05,8.18.09,12.27.1.82,0,1.29.46,1.73,1.09Z" style="fill:#0a1628;"/><path d="M25.74,5.19c-1.16-.02-2.32-.06-3.47-.07-2.7-.03-5.41-.03-8.11-.06-.51,0-1.03-.08-1.54-.13-.09,0-.22,0-.26-.06-.41-.56-1.02-.42-1.57-.43-2.63-.03-5.27-.05-7.9-.07-.09,0-.19.02-.27,0-.14-.05-.27-.12-.41-.18.14-.08.28-.22.42-.22,1.51.02,3.02.06,4.53.09,2.12.05,4.24.08,6.35.14,3.9.11,7.8.23,11.71.38.22,0,.43.26.65.39-.04.08-.08.15-.12.23Z" style="fill:#0a1628;"/><path d="M35.77,34.06c-.08.73-.31.95-.92.93-3.37-.1-6.74-.19-10.11-.28-.32,0-.59,0-.78-.37-.07-.14-.41-.2-.62-.21-1.25-.02-2.5,0-3.76-.03-.28,0-.56-.2-.84-.3.27-.05.53-.16.8-.16,2.19.03,4.38.05,6.57.11,3.02.08,6.04.19,9.05.28.2,0,.4,0,.6.01Z" style="fill:#0a1628;"/><path d="M39.26,14.97c-.89.15-1.78.4-2.68.43-1.84.07-3.69.07-5.53.01-2.06-.06-4.15-.02-6.17-.36-2.13-.36-4.25-.15-6.36-.33-.2-.02-.39-.06-.59-.09,0-.06,0-.12-.01-.18.15-.04.31-.12.46-.12,2.8.04,5.59.07,8.39.13,1.65.04,3.31.16,4.96.19,2.36.05,4.72.04,7.07.06.14,0,.28,0,.43,0,.01.08.02.16.03.23Z" style="fill:#0a1628;"/><path d="M15.39,45.96c.16-.34.26-.56.39-.83l-4.01-.08c0-.05,0-.11-.01-.16.16-.02.31-.06.47-.05,2.71.09,5.41.21,8.12.29,1.99.06,3.98.08,5.97.12.13,0,.27-.02.38.03.2.09.54.21.55.34.02.37-.21.6-.63.58-.75-.03-1.51-.05-2.27-.06-1.92-.04-3.83-.07-5.75-.1-1.02-.02-2.05-.04-3.21-.07Z" style="fill:#0a1628;"/><path d="M16.44,44.6c.26-.27.46-.48.74-.78l-1.02-.02c0-.05,0-.11,0-.16.29-.02.58-.06.87-.05,3.09.08,6.18.17,9.28.26.2,0,.41-.02.61,0,.25.02.63-.22.64.31,0,.56-.19.83-.65.82-3.39-.1-6.78-.2-10.16-.3-.05,0-.11-.03-.3-.08Z" style="fill:#0a1628;"/><path d="M24.22,36.11c.12-.67-.22-.61-.76-.61-2.36,0-4.72-.09-7.07-.16-.12,0-.24-.08-.36-.12.01-.07.02-.13.03-.2,6.24.2,12.48.41,18.72.61-.04.62-.26.81-.92.79-2.78-.09-5.56-.19-8.34-.28-.4-.01-.81-.02-1.29-.03Z" style="fill:#0a1628;"/><path d="M14.62,46.45c-.76.05-1.49.09-2.22.13-.02-.09-.04-.17-.06-.26.19-.05.38-.14.56-.14,1.83.09,3.67.22,5.5.3,1.65.08,3.31.13,4.96.19,1.18.04,2.35.05,3.56.08,0,.51-.26.72-.68.74-.42.02-.85,0-1.27-.01-3.2-.05-6.41-.1-9.61-.16-.04,0-.07,0-.11,0-.81-.02-.86-.07-.65-.87Z" style="fill:#0a1628;"/><path d="M23.44,32.5l13.17.27c.06.62-.22.94-.84.92-2.65-.07-5.3-.16-7.95-.23-1.03-.03-2.06-.04-3.09-.04-.96,0-.96.02-1.29-.92Z" style="fill:#0a1628;"/><path d="M28.37,42.47c-.38.91-.53,1.01-1.35,1-2.28-.05-4.57-.11-6.85-.14-.5,0-1.01.04-1.53-.03.31-.19.62-.39.93-.58-.02-.08-.04-.16-.07-.24-1.04-.04-2.07-.08-3.11-.11-1.04-.03-2.09-.04-3.13-.2,5.01.1,10.03.21,15.11.31Z" style="fill:#0a1628;"/><path d="M19.43,49.3c-.73.4-1.45.83-2.33.79-1.84-.08-3.68-.15-5.52-.21-.62-.02-1.24-.03-1.9-.04-.01-.14-.03-.32-.04-.49-1.14-.02-2.28-.05-3.41-.07-.24,0-.48.01-.72-.03-.18-.03-.34-.13-.51-.2,0-.05,0-.11.01-.16.16-.04.32-.1.48-.1,2.15.03,4.33-.11,6.45.16,2.06.26,4.11.22,6.16.32.44.02.88.02,1.32.03Z" style="fill:#0a1628;"/><path d="M24.77,17.77c.19-.26.36-.49.52-.73-.04-.05-.09-.11-.13-.16,1,.02,2.01.03,3.01.06,1.38.05,2.76.1,4.14.17.53.03,1.06.11,1.59.13.55.02.79.35.99.79-.65.19-9.75-.07-10.13-.27Z" style="fill:#0a1628;"/><path d="M21.31,39.6c-1.56-.03-3.05-.06-4.54-.09,2.44-.19,4.88-.09,7.32.04,2.44.13,4.87.26,7.36.39-.26.45-.54.74-1.11.72-2.91-.11-5.82-.19-8.73-.28-.09,0-.18-.02-.34-.03.02-.27.04-.53.05-.74Z" style="fill:#0a1628;"/><path d="M32.68,38.29c-.29.72-.66.96-1.22.95-1.75-.04-3.5-.07-5.25-.11-1.36-.03-2.72-.06-4.09-.08.21-.87.3-.96,1.08-.95,3.11.06,6.22.13,9.47.19Z" style="fill:#0a1628;"/><path d="M19,15.4c1.56.03,3.12.07,4.68.09.36,0,.72-.09,1.08-.14.11-.01.21-.04.32-.03.65.06,1.3.13,1.95.2.98.11,1.97.24,2.95.35.24.03.47.07.71.05,1.15-.07,2.29-.16,3.48-.24l-.02,1.19c-.11.01-.23.04-.35.04-1.58-.06-3.17-.07-4.74-.21-1.07-.1-2.12-.38-3.18-.58-.04,0-.08-.01-.1-.03-.79-.8-1.79-.42-2.71-.46-1.21-.04-2.42-.05-3.63-.07-.15,0-.31-.05-.46-.08,0-.03.01-.05.02-.08Z" style="fill:#0a1628;"/><path d="M27.48,8.2c-.47,0-.93-.01-1.38-.03-1.2-.05-2.41.01-3.58-.17-4-.62-8.03-.26-12.03-.49-.14,0-.29-.06-.43-.09,0-.07,0-.14,0-.21.21-.03.41-.09.62-.09,3.19.06,6.37.12,9.56.18,1.16.02,2.32,0,3.48.04,1.08.03,2.16.12,3.25.18.39.02.54.24.53.67Z" style="fill:#0a1628;"/><path d="M20.43,40.92c-.91-.02-1.75-.04-2.6-.05,4.09-.44,8.15.5,12.26.29-.32.47-.68.8-1.28.79-2.67-.08-5.33-.15-8-.21-.32,0-.44-.11-.42-.4,0-.14.02-.28.03-.41Z" style="fill:#0a1628;"/><path d="M28.91,9.15c-.16.01-.31.04-.47.04-1.82-.03-3.64-.06-5.47-.12-.27,0-.54-.17-.81-.24-.19-.05-.39-.11-.58-.12-3-.07-6-.12-9-.18-.19,0-.38-.05-.57-.08,0-.06-.02-.11-.02-.17.16-.05.33-.14.49-.14,3.13.05,6.26.1,9.39.18,1.95.05,3.9.14,5.84.25.41.02.82.24,1.23.37,0,.07-.02.13-.03.2Z" style="fill:#0a1628;"/><path d="M2.93,3.1c7.19.15,14.37.29,21.56.45.12,0,.24.14.35.21,0,.05-.02.1-.02.15-.7-.01-1.4-.03-2.09-.04-2.62-.07-5.23-.14-7.85-.2-.96-.02-1.93.11-2.87-.03-2.97-.46-5.97-.21-8.95-.39-.05,0-.09-.03-.13-.05,0-.03,0-.06,0-.09Z" style="fill:#0a1628;"/><path d="M41.45,11.13c-.29.03-.54.08-.79.07-2.39-.05-4.78-.1-7.17-.15-.15,0-.31,0-.43-.06-.12-.06-.31-.21-.29-.3.02-.14.16-.34.29-.38.26-.08.54-.09.82-.09,2.17.04,4.34.1,6.51.15.49.01.89.16,1.07.75Z" style="fill:#0a1628;"/><path d="M15.37,50.74c-.47.39-.87.85-1.62.81-1.67-.07-3.35-.08-5.05-.12.02-.07.04-.15.06-.23.16-.51.09-.63-.44-.65-.88-.04-1.77-.05-2.65-.08-.1,0-.21,0-.31-.09,3.32.07,6.65.14,9.97.2.01.05.02.1.03.15Z" style="fill:#0a1628;"/><path d="M18,58.71c.04-.69.49-1.09,1.11-1.07,1.57.04,3.13.06,4.7.09.14,0,.28.02.43.03-.23.9-.46,1.07-1.29,1.05-1.64-.04-3.27-.07-4.95-.1Z" style="fill:#0a1628;"/><path d="M30.45,27.81c.39,0,.78.02,1.18.02,1.97,0,3.93-.03,5.9-.03.43,0,.86.13,1.29.15,1.09.05,2.17.06,3.26.1.21,0,.42.11.74.19-.75.44-11.94.15-12.37-.24,0-.06,0-.13,0-.19Z" style="fill:#0a1628;"/><path d="M40.55,9.74c-2.51-.05-4.94-.1-7.38-.15.12-.66.47-.88,1.04-.86,1.66.06,3.31.09,4.97.09.81,0,.96.06,1.37.93Z" style="fill:#0a1628;"/><path d="M4.65,56.13c1.62-.81,3.24.06,4.87,0,.27-.01.55,0,.82.01-.05.66-.37.96-.96.94-1.45-.04-2.9-.06-4.3-.09-.16-.32-.3-.59-.43-.86Z" style="fill:#0a1628;"/><path d="M7.07,53.31c-1.24-.03-2.41-.05-3.58-.07,0-.07,0-.13.01-.2,2.78.04,5.56.05,8.4.5-.21.44-.5.71-.97.71-1.29-.02-2.58-.04-3.87-.09-.18,0-.36-.12-.54-.18.12-.11.25-.22.36-.34.06-.07.1-.17.18-.33Z" style="fill:#0a1628;"/><path d="M23.33,2.91c-2.31-.05-4.63-.06-6.94-.15-2.28-.09-4.59.19-6.81-.61,4.59.15,9.17.31,13.76.46,0,.1,0,.2,0,.3Z" style="fill:#0a1628;"/><path d="M7.77,52.86c.11-.32.18-.56.28-.86l-1.54-.03c0-.06,0-.11,0-.17,2.28-.06,4.56.13,6.91.4-.34.39-.72.73-1.21.73-1.45.01-2.9-.04-4.45-.08Z" style="fill:#0a1628;"/><path d="M2.1,57.3c2.4.12,4.83-.13,7.26.52-.29.4-.67.65-1.14.65-1.17,0-2.35-.04-3.54-.06l.02-.84c-.88-.02-1.75-.04-2.62-.05,0-.07.01-.15.02-.22Z" style="fill:#0a1628;"/><path d="M5.53,55.51c-.16-.76-.05-.92.68-.89,1.61.08,3.22.18,4.83.27-.13.77-.25.9-.91.87-1.21-.06-2.42-.15-3.63-.22-.33-.02-.65-.02-.98-.02Z" style="fill:#0a1628;"/><path d="M14.21,5.59c2.17,0,4.33-.02,6.5-.01,1.67,0,3.35.03,5.02.07.21,0,.41.11.6.29-4.06.27-8.09.05-12.12-.34Z" style="fill:#0a1628;"/><path d="M20.35,55.98c.12-.89.31-1.07,1.08-1.05.99.02,1.98.05,2.97.06.38,0,.63.07.59.55-.04.42-.19.56-.62.54-1.33-.05-2.67-.06-4.02-.09Z" style="fill:#0a1628;"/><path d="M41.64,15.66c.11-.93.11-.92.92-.89,1.23.05,2.45.06,3.68.11.2,0,.43.12.59.25.12.1.16.3.23.46-.14.06-.29.16-.43.16-1.65-.02-3.29-.06-4.99-.09Z" style="fill:#0a1628;"/><path d="M18.54,9.49c2.26.05,4.52,0,6.76.17,1.79.14,3.61-.04,5.39.24,0,.08,0,.16,0,.24-.32.01-.64.04-.95.04-2.26-.05-4.55.07-6.78-.23-1.41-.2-2.8-.16-4.2-.3-.08,0-.16-.05-.23-.08,0-.02.01-.05.02-.07Z" style="fill:#0a1628;"/><path d="M41.43,19.67c-.1-.97-.1-.96.83-.91,1.43.07,2.87.12,4.3.21.23.01.63-.16.61.31-.02.38-.31.43-.64.42-1.36-.03-2.72-.06-4.08-.07-.33,0-.65.03-1.02.04Z" style="fill:#0a1628;"/><path d="M29.55,10.98c-.26.06-.52.18-.77.18-1.86-.04-3.74.05-5.57-.21-1.29-.18-2.56-.12-3.84-.24-.3-.03-.6-.06-1.06-.1.2-.14.25-.2.3-.2,2.12.04,4.23.05,6.34.14,1.52.06,3.03.23,4.55.34.01.03.03.07.04.1Z" style="fill:#0a1628;"/><path d="M22.94,59.28c-.15.63-.47.8-.89.8-1.14-.02-2.28-.04-3.42-.08-.16,0-.35-.05-.45-.15-.1-.1-.14-.29-.14-.45,0-.07.17-.2.26-.2,1.52.02,3.05.05,4.65.09Z" style="fill:#0a1628;"/><path d="M19.6,57.22c.17-.56.48-.86,1.07-.85,1.05.03,2.1.02,3.15.04.28,0,.63-.03.6.44-.03.39-.26.46-.6.45-1.39-.04-2.78-.06-4.21-.09Z" style="fill:#0a1628;"/><path d="M46.74,20.04c-.13.58-.49.54-.81.53-1.22-.02-2.43-.05-3.65-.08-.34,0-.58.08-.88.3-.35.25-.89.24-1.37.27.37-.44.78-.68,1.37-.86,1.51-.47,3.01-.08,4.51-.18.25-.02.51,0,.83.01Z" style="fill:#0a1628;"/><path d="M25.03,50.9c-.16.78-.25.87-.92.85-.76-.02-1.51-.03-2.27-.04-.28,0-.54-.03-.5-.41.03-.32.09-.56.52-.54.92.04,1.84.05,2.76.07.14,0,.27.05.41.07Z" style="fill:#0a1628;"/><path d="M25.56,49.41c0,.7-.11.83-.73.81-.98-.03-1.95-.08-2.93-.1-.32,0-.54-.08-.53-.46.01-.41.31-.33.56-.33,1.21.02,2.42.05,3.63.07Z" style="fill:#0a1628;"/><path d="M47.63,18.2c-.17.11-.35.33-.52.32-1.8-.03-3.6-.1-5.4-.15-.33,0-.5-.09-.34-.48,2.04.04,4.1.08,6.15.13.04.06.08.12.12.19Z" style="fill:#0a1628;"/><path d="M47.56,16.65l-6.1-.13c-.03-.37.06-.56.47-.55,1.73.03,3.46.04,5.19.06.37,0,.52.21.44.61Z" style="fill:#0a1628;"/><path d="M34.61,8.29c1.05-1.02,3-1.31,4.65.1l-4.65-.1Z" style="fill:#0a1628;"/><path d="M20.73,6.38c.5.01,1.01.02,1.51.03,1.34.04,2.68.08,4.02.12.34,0,.63.05.62.53-.15.01-.3.04-.44.04-1.54-.03-3.09-.05-4.63-.12-.38-.02-.75-.22-1.13-.34l.05-.25Z" style="fill:#0a1628;"/><path d="M0,0c1.23.03,2.45.04,3.68.08,2.65.07,5.3.16,7.96.21.73.02,1.47-.06,2.21-.05.26,0,.51.16.75.35-2.45.34-4.82-.42-7.25-.35C4.9.32,2.45.17,0,.12c0-.04,0-.08,0-.12Z" style="fill:#0a1628;"/><path d="M9.93,46.35c-.23.05-.45.14-.68.13-1.44-.02-2.87-.06-4.31-.08-.42,0-.85.02-1.27,0-.12,0-.23-.1-.35-.16.11-.09.21-.19.33-.26.05-.03.14,0,.22,0,1.88.04,3.76.07,5.63.11.12,0,.25.04.37.05.01.07.03.14.04.2Z" style="fill:#0a1628;"/><path d="M15.9,1.76c-1.63-.03-3.27-.07-4.9-.1-.09,0-.18-.02-.27-.05-.56-.19-1.11-.39-1.41-.49,2,.13,4.34-.13,6.58.64Z" style="fill:#0a1628;"/><path d="M22.64,53.15c-.39,0-.78.02-1.16-.04-.15-.03-.38-.25-.38-.38,0-.14.22-.4.35-.4.83-.01,1.65.01,2.48.07.16.01.3.23.45.35-.16.14-.31.38-.48.4-.41.05-.84,0-1.27,0h0Z" style="fill:#0a1628;"/><path d="M41.47,17c1.27.03,2.53.05,3.8.08.66.01,1.33,0,1.99.04.14,0,.28.13.43.2-.14.08-.29.22-.43.22-1.45,0-2.91-.04-4.36-.07-.39,0-.78,0-1.16-.05-.13-.02-.24-.17-.36-.26.03-.05.06-.1.1-.15Z" style="fill:#0a1628;"/><path d="M18.59,60.65c1.2.02,2.33.05,3.61.07-.54.55-1.05.83-1.7.84-.27,0-.55-.06-.82-.04-.61.04-.9-.29-1.08-.87Z" style="fill:#0a1628;"/><path d="M22.65,54.48c-.37,0-.74.02-1.1-.04-.14-.02-.35-.23-.35-.36,0-.12.22-.35.34-.35.84-.01,1.69,0,2.53.06.17.01.32.23.48.36-.16.1-.31.27-.48.29-.47.06-.95.05-1.43.07,0-.01,0-.02,0-.04Z" style="fill:#0a1628;"/><path d="M15.03,43.77c-2-.04-4.01-.08-6.01-.12,0-.05,0-.09,0-.14,2,.04,4.01.08,6.01.12,0,.05,0,.09,0,.14Z" style="fill:#0a1628;"/><path d="M15.49,37.78c2.26.05,4.51.09,6.77.14v.09c-2.26-.05-4.51-.09-6.77-.14,0-.03,0-.06,0-.09Z" style="fill:#0a1628;"/><path d="M7.17,59.12c-.23.04-.45.06-.68.12-.51.12-1.01.27-1.52.39-.19.05-.4.11-.59.08-.2-.03-.4-.15-.59-.23.2-.17.37-.44.59-.49.35-.08.73,0,1.09,0,.56.01,1.12.02,1.69.03,0,.03,0,.06.01.09Z" style="fill:#0a1628;"/><path d="M18.04,62.79c.35-.84.82-1.01,2.14-.79-.44.71-1.22,1.02-2.14.79Z" style="fill:#0a1628;"/><path d="M4.38,60.4c-.34.29-.6.54-.88.75-.08.06-.3.05-.37-.01-.08-.08-.12-.27-.08-.38.15-.57.47-.67,1.33-.35Z" style="fill:#0a1628;"/><path d="M17.52,16.79l2.31.05s0,.08,0,.12c-.77-.02-1.54-.03-2.31-.05,0-.04,0-.08,0-.12Z" style="fill:#0a1628;"/><path d="M2.42,62.45c-.16-.23-.32-.45-.5-.7.42-.05.86-.1,1.3-.16.05.06.1.12.14.19-.33.23-.65.46-.95.67Z" style="fill:#0a1628;"/><path d="M.08.88l2.01.04s0,.04,0,.06c-.67-.01-1.34-.03-2.01-.04,0-.02,0-.04,0-.06Z" style="fill:#0a1628;"/><path d="M3.59,54.73l1.44.03s0,.04,0,.06l-1.44-.03s0-.04,0-.06Z" style="fill:#0a1628;"/><path d="M11.94,46.87c-.12.15-.21.32-.36.43-.04.03-.22-.13-.34-.21.15-.15.3-.29.45-.44.08.07.17.15.25.22Z" style="fill:#0a1628;"/></g></svg>